<svg width="64" height="64" viewBox="0 0 64 64" xmlns="http://www.w3.org/2000/svg">
  <!-- Drop Shadow -->
  <ellipse cx="32" cy="58" rx="16" ry="4" fill="#000" opacity="0.2" />
  
  <!-- Ghost Body -->
  <path d="M12 32 C12 18 20 8 32 8 C44 8 52 18 52 32 V50 C52 54 48 56 46 54 L42 50 L38 54 L32 50 L26 54 L22 50 L18 54 C16 56 12 54 12 50 Z" fill="#ffffff" stroke="#e0e0e0" stroke-width="2"/>
  
  <!-- Eyes -->
  <circle cx="25" cy="28" r="4" fill="#333" />
  <circle cx="39" cy="28" r="4" fill="#333" />
  
  <!-- Blush -->
  <circle cx="20" cy="34" r="3" fill="#ffb7b2" opacity="0.6" />
  <circle cx="44" cy="34" r="3" fill="#ffb7b2" opacity="0.6" />
  
  <!-- Mouth (Tiny smile) -->
  <path d="M30 36 Q32 38 34 36" stroke="#333" stroke-width="2" fill="none" stroke-linecap="round" />
</svg>
